<svg xmlns="http://www.w3.org/2000/svg" width="64" height="64" viewBox="0 0 64 64" fill="none">
  <defs>
    <linearGradient id="bg" x1="10" y1="8" x2="54" y2="58" gradientUnits="userSpaceOnUse">
      <stop offset="0" stop-color="#426B8D"/>
      <stop offset="1" stop-color="#2B4C68"/>
    </linearGradient>
    <linearGradient id="ring" x1="16" y1="10" x2="52" y2="54" gradientUnits="userSpaceOnUse">
      <stop offset="0" stop-color="#F2D57A"/>
      <stop offset="1" stop-color="#C79A21"/>
    </linearGradient>
  </defs>
  <rect x="4" y="4" width="56" height="56" rx="18" fill="url(#bg)"/>
  <rect x="4.75" y="4.75" width="54.5" height="54.5" rx="17.25" stroke="url(#ring)" stroke-width="1.5"/>
  <g transform="translate(11 11) scale(1.75)" stroke-linecap="round" stroke-linejoin="round">
    <path d="M11.992 21c-.728 -.003 -1.455 -.442 -1.667 -1.317a1.724 1.724 0 0 0 -2.573 -1.066c-1.543 .94 -3.31 -.826 -2.37 -2.37a1.724 1.724 0 0 0 -1.065 -2.572c-1.756 -.426 -1.756 -2.924 0 -3.35a1.724 1.724 0 0 0 1.066 -2.573c-.94 -1.543 .826 -3.31 2.37 -2.37c1 .608 2.296 .07 2.572 -1.065c.426 -1.756 2.924 -1.756 3.35 0a1.724 1.724 0 0 0 2.573 1.066c1.543 -.94 3.31 .826 2.37 2.37a1.724 1.724 0 0 0 1.065 2.572c.882 .214 1.32 .95 1.317 1.684" stroke="#F9F7F2" stroke-width="1.8"/>
    <path d="M9 12a3 3 0 1 0 6 0a3 3 0 0 0 -6 0" stroke="#F9F7F2" stroke-width="1.8"/>
    <path d="M19 22.5a4.75 4.75 0 0 1 3.5 -3.5a4.75 4.75 0 0 1 -3.5 -3.5a4.75 4.75 0 0 1 -3.5 3.5a4.75 4.75 0 0 1 3.5 3.5" stroke="#D4AF37" stroke-width="1.8"/>
  </g>
</svg>
